<?xml version="1.0" standalone="no"?>
<!DOCTYPE svg PUBLIC "-//W3C//DTD SVG 20010904//EN"
 "http://www.w3.org/TR/2001/REC-SVG-20010904/DTD/svg10.dtd">
<svg version="1.0" xmlns="http://www.w3.org/2000/svg"
 width="460.000000pt" height="460.000000pt" viewBox="0 0 460.000000 460.000000"
 preserveAspectRatio="xMidYMid meet">
<metadata>
Created by potrace 1.16, written by Peter Selinger 2001-2019
</metadata>
<g transform="translate(0.000000,460.000000) scale(0.100000,-0.100000)"
fill="#cbb39c" stroke="none">
<path d="M0 2300 l0 -2300 2300 0 2300 0 0 2300 0 2300 -2300 0 -2300 0 0
-2300z m3262 621 c80 -27 131 -60 205 -132 228 -224 232 -679 6 -915 -105
-111 -236 -164 -403 -164 -226 0 -396 104 -494 304 -150 305 -67 680 190 852
134 89 328 111 496 55z m-1926 -33 c142 -75 199 -178 192 -351 -3 -82 -7 -100
-38 -162 -26 -52 -48 -80 -85 -108 -83 -62 -122 -70 -367 -75 l-218 -4 0 -224
0 -224 -110 0 -110 0 0 591 0 590 343 -3 342 -3 51 -27z m472 -315 c6 -16 24
-68 41 -118 17 -49 51 -148 77 -220 25 -71 55 -158 66 -192 10 -35 22 -63 26
-63 7 0 129 348 196 558 l20 62 103 0 c57 0 103 -2 103 -5 0 -3 -12 -35 -26
-72 -53 -141 -82 -220 -108 -293 -15 -41 -40 -109 -55 -150 -16 -41 -48 -127
-71 -190 -109 -300 -138 -366 -185 -414 -64 -66 -97 -77 -222 -74 l-108 3 -3
83 -3 83 68 -6 c94 -8 119 8 156 104 26 68 27 73 11 109 -8 20 -31 80 -50 132
-19 52 -46 122 -59 155 -22 55 -84 217 -155 405 -15 41 -33 87 -39 103 l-11
27 109 0 109 0 10 -27z m2137 -514 c62 -17 112 -71 120 -130 8 -59 -7 -112
-40 -137 l-24 -19 25 -12 c31 -14 63 -83 64 -136 0 -52 -35 -121 -80 -157 -65
-51 -185 -57 -271 -13 -35 19 -76 86 -85 143 l-7 42 67 0 c64 0 66 -1 66 -26
0 -15 12 -38 30 -56 27 -26 36 -30 68 -24 45 7 71 39 72 87 0 53 -26 80 -83
86 l-47 6 0 48 c0 45 2 49 24 49 42 0 76 18 87 47 20 54 -11 103 -65 103 -43
0 -66 -19 -75 -60 -7 -35 -7 -35 -69 -38 l-63 -3 7 38 c24 137 134 201 279
162z"/>
<path d="M2993 2771 c-95 -25 -170 -87 -218 -181 -95 -189 -62 -494 67 -617
18 -18 60 -45 93 -60 79 -37 193 -39 270 -5 143 65 216 208 216 422 0 213 -74
359 -214 420 -52 23 -163 34 -214 21z"/>
<path d="M820 2560 l0 -190 178 0 c164 0 181 2 222 23 53 26 85 70 94 127 12
73 -9 144 -56 187 -35 33 -97 42 -275 43 l-163 0 0 -190z"/>
</g>
</svg>
