<?xml version="1.0" standalone="no"?>
<!DOCTYPE svg PUBLIC "-//W3C//DTD SVG 20010904//EN"
 "http://www.w3.org/TR/2001/REC-SVG-20010904/DTD/svg10.dtd">
<svg version="1.0" xmlns="http://www.w3.org/2000/svg"
 width="460.000000pt" height="460.000000pt" viewBox="0 0 460.000000 460.000000"
 preserveAspectRatio="xMidYMid meet">
<metadata>
Created by potrace 1.16, written by Peter Selinger 2001-2019
</metadata>
<g transform="translate(0.000000,460.000000) scale(0.100000,-0.100000)"
fill="#cbb39c" stroke="none">
<path d="M1727 3293 c-4 -3 -7 -132 -7 -285 l0 -279 73 3 72 3 3 274 c2 213
-1 276 -10 283 -16 9 -122 11 -131 1z"/>
<path d="M1520 3195 l0 -96 68 3 67 3 0 90 0 90 -67 3 -68 3 0 -96z"/>
<path d="M1926 3275 c-3 -9 -6 -213 -6 -454 0 -327 3 -440 12 -449 17 -17 113
-15 127 2 8 9 10 139 9 462 l-3 449 -66 3 c-54 2 -68 0 -73 -13z"/>
<path d="M2137 3243 c-9 -8 -9 -266 -1 -287 5 -12 21 -16 69 -16 48 0 64 4 69
16 3 9 6 71 6 139 0 68 -3 130 -6 139 -5 12 -21 16 -68 16 -35 0 -66 -3 -69
-7z"/>
<path d="M2956 3228 c-14 -19 -16 -67 -16 -326 0 -190 4 -311 10 -323 9 -15
22 -19 69 -19 44 0 60 4 65 16 3 9 6 157 6 329 0 355 2 345 -75 345 -34 0 -47
-5 -59 -22z"/>
<path d="M2342 3218 c-17 -17 -17 -569 0 -586 7 -7 35 -12 63 -12 28 0 56 5
63 12 9 9 12 89 12 299 0 252 -2 288 -16 293 -27 10 -110 6 -122 -6z"/>
<path d="M2753 3223 c-18 -7 -18 -394 -1 -411 7 -7 36 -12 65 -12 41 0 54 4
63 19 15 29 13 384 -2 399 -12 12 -100 15 -125 5z"/>
<path d="M1323 3203 c-18 -7 -19 -643 -1 -661 7 -7 36 -12 65 -12 41 0 54 4
63 19 6 12 10 132 10 321 0 189 -4 309 -10 321 -9 15 -21 19 -63 18 -29 0 -58
-3 -64 -6z"/>
<path d="M2547 3194 c-10 -10 -8 -866 2 -882 5 -9 26 -12 67 -10 l59 3 0 445
0 445 -60 3 c-34 2 -64 0 -68 -4z"/>
<path d="M3162 3178 c-17 -17 -18 -798 0 -816 7 -7 38 -12 70 -12 51 0 58 2
63 23 3 12 4 200 3 417 l-3 395 -60 3 c-38 2 -65 -2 -73 -10z"/>
<path d="M1105 3108 c-3 -13 -4 -95 -3 -183 l3 -160 70 0 70 0 0 180 0 180
-67 3 c-63 3 -68 1 -73 -20z"/>
<path d="M3360 3000 l0 -131 68 3 67 3 0 125 0 125 -67 3 -68 3 0 -131z"/>
<path d="M3572 3068 c-7 -7 -12 -41 -12 -90 0 -89 3 -92 96 -86 l49 3 0 90 0
90 -60 3 c-38 2 -65 -2 -73 -10z"/>
<path d="M1525 3038 c-3 -7 -4 -233 -3 -503 l3 -490 53 -3 c31 -2 60 2 68 9
12 10 14 90 14 499 0 549 8 500 -81 500 -31 0 -51 -5 -54 -12z"/>
<path d="M907 3024 c-4 -4 -7 -123 -7 -265 0 -289 -6 -269 80 -269 28 0 52 6
59 14 8 9 11 88 9 267 l-3 254 -65 3 c-36 2 -69 0 -73 -4z"/>
<path d="M3777 3014 c-4 -4 -7 -162 -7 -351 l0 -344 68 3 67 3 0 345 0 345
-60 3 c-34 2 -64 0 -68 -4z"/>
<path d="M2142 2868 c-17 -17 -17 -969 0 -986 7 -7 35 -12 63 -12 28 0 56 5
63 12 17 17 17 969 0 986 -16 16 -110 16 -126 0z"/>
<path d="M3578 2829 c-15 -8 -18 -24 -18 -84 0 -84 9 -95 75 -95 66 0 75 11
75 95 0 63 -3 76 -19 85 -25 13 -91 13 -113 -1z"/>
<path d="M3980 2821 c-11 -21 -15 -437 -4 -465 9 -23 129 -23 138 0 12 31 7
459 -6 472 -7 7 -36 12 -65 12 -41 0 -54 -4 -63 -19z"/>
<path d="M3372 2802 c-9 -7 -12 -57 -10 -218 l3 -209 44 -3 c25 -2 55 -1 68 3
l23 5 0 203 c0 145 -3 206 -12 215 -13 13 -96 16 -116 4z"/>
<path d="M2747 2733 c-4 -3 -7 -248 -7 -544 0 -603 -8 -549 79 -549 26 0 52 5
59 12 9 9 12 141 12 534 0 287 -3 529 -6 538 -5 12 -21 16 -68 16 -35 0 -66
-3 -69 -7z"/>
<path d="M702 2698 c-9 -9 -12 -97 -12 -365 l0 -353 23 -5 c13 -4 46 -5 73 -3
l49 3 0 365 0 365 -60 3 c-38 2 -65 -2 -73 -10z"/>
<path d="M1112 2698 c-14 -14 -17 -474 -3 -496 5 -9 27 -12 72 -10 l64 3 3
244 c2 171 -1 248 -9 257 -14 17 -110 19 -127 2z"/>
<path d="M1732 2658 c-9 -9 -12 -110 -12 -394 0 -425 -6 -394 71 -394 84 0 79
-28 79 400 0 365 -1 380 -19 390 -27 14 -104 13 -119 -2z"/>
<path d="M3567 2594 c-12 -13 -8 -219 5 -232 13 -13 106 -16 126 -4 9 6 12 38
10 123 l-3 114 -65 3 c-36 2 -69 0 -73 -4z"/>
<path d="M4176 2584 c-3 -9 -6 -44 -6 -79 0 -92 2 -95 69 -95 31 0 62 5 69 12
12 12 17 134 6 162 -5 12 -21 16 -69 16 -48 0 -64 -4 -69 -16z"/>
<path d="M2336 2545 c-11 -28 -7 -465 4 -486 9 -15 22 -19 64 -19 33 0 58 5
65 14 8 9 11 86 9 257 l-3 244 -66 3 c-54 2 -68 0 -73 -13z"/>
<path d="M2956 2488 c-19 -26 -23 -197 -6 -229 9 -15 22 -19 69 -19 44 0 60 4
65 16 11 30 7 229 -6 242 -7 7 -33 12 -59 12 -38 0 -51 -5 -63 -22z"/>
<path d="M1323 2463 c-9 -3 -13 -33 -13 -98 0 -75 3 -94 16 -99 27 -10 110 -6
122 6 7 7 12 43 12 93 0 50 -5 86 -12 93 -12 12 -100 15 -125 5z"/>
<path d="M902 2088 l3 -353 61 -3 c43 -2 64 1 73 11 8 11 11 105 9 353 l-3
339 -73 3 -72 3 2 -353z"/>
<path d="M1932 2288 c-8 -8 -12 -67 -12 -199 0 -216 1 -219 79 -219 26 0 52 5
59 12 17 17 17 389 0 406 -7 7 -35 12 -63 12 -28 0 -56 -5 -63 -12z"/>
<path d="M502 2238 c-17 -17 -17 -459 0 -476 7 -7 36 -12 65 -12 41 0 54 4 63
19 6 12 10 104 10 231 0 127 -4 219 -10 231 -9 15 -22 19 -63 19 -29 0 -58 -5
-65 -12z"/>
<path d="M2545 2218 c-3 -13 -4 -176 -3 -363 l3 -340 65 0 65 0 3 354 c2 277
-1 356 -10 363 -7 4 -37 8 -65 8 -46 0 -53 -3 -58 -22z"/>
<path d="M1322 2212 c-9 -7 -12 -83 -10 -348 l3 -339 66 -3 c62 -3 67 -1 73
20 10 40 7 638 -4 659 -9 15 -21 19 -63 19 -29 0 -58 -4 -65 -8z"/>
<path d="M1112 2118 c-15 -15 -17 -419 -2 -449 9 -15 22 -19 64 -19 33 0 58 5
65 14 8 9 11 81 9 237 l-3 224 -60 3 c-38 2 -65 -2 -73 -10z"/>
<path d="M1532 1982 c-9 -7 -12 -46 -10 -163 l3 -154 53 -3 c81 -5 82 -2 82
162 0 97 -4 146 -12 154 -13 13 -96 16 -116 4z"/>
<path d="M2342 1978 c-8 -8 -12 -51 -12 -128 0 -77 4 -120 12 -128 16 -16 110
-16 126 0 8 8 12 51 12 128 0 77 -4 120 -12 128 -7 7 -35 12 -63 12 -28 0 -56
-5 -63 -12z"/>
<path d="M696 1894 c-3 -9 -6 -64 -6 -124 0 -128 3 -132 87 -128 l58 3 3 133
3 132 -70 0 c-54 0 -70 -4 -75 -16z"/>
<path d="M296 1793 c-3 -4 -6 -93 -6 -199 l1 -193 67 0 c40 0 70 5 74 12 12
18 10 345 -2 368 -9 15 -22 19 -69 19 -32 0 -61 -3 -65 -7z"/>
<path d="M490 1495 l0 -206 73 3 72 3 0 200 0 200 -72 3 -73 3 0 -206z"/>
<path d="M1724 1637 c-2 -7 -3 -87 -2 -177 l3 -165 70 0 70 0 3 169 c2 129 -1
171 -10 178 -22 13 -128 10 -134 -5z"/>
<path d="M2950 1621 c-15 -28 -13 -304 2 -319 19 -19 124 -16 132 4 8 20 8
298 0 318 -5 12 -21 16 -65 16 -47 0 -60 -4 -69 -19z"/>
<path d="M1524 1587 c-2 -7 -3 -58 -2 -113 l3 -99 65 0 65 0 3 104 c2 77 -1
107 -10 113 -22 13 -118 10 -124 -5z"/>
<path d="M2757 1578 c-16 -12 -17 -28 -15 -133 l3 -120 64 -3 c45 -2 67 1 72
10 11 17 11 219 0 237 -12 19 -101 26 -124 9z"/>
<path d="M1926 1478 c-9 -34 -7 -161 3 -176 5 -9 27 -12 72 -10 l64 3 3 80 c5
123 4 125 -72 125 -58 0 -64 -2 -70 -22z"/>
<path d="M700 1461 c-16 -30 -13 -146 4 -160 9 -7 38 -11 73 -9 l58 3 3 84 c3
97 1 101 -75 101 -42 0 -54 -4 -63 -19z"/>
<path d="M3161 1466 c-8 -9 -11 -43 -9 -93 l3 -78 70 0 70 0 3 78 c4 97 -3
107 -73 107 -33 0 -57 -5 -64 -14z"/>
</g>
</svg>
